<?xml version="1.0" encoding="UTF-8"?>
<svg width="33px" height="36px" viewBox="0 0 33 36" version="1.1" xmlns="http://www.w3.org/2000/svg" xmlns:xlink="http://www.w3.org/1999/xlink">
    <!-- Generator: Sketch 46.2 (44496) - http://www.bohemiancoding.com/sketch -->
    <title>Library</title>
    <desc>Created with Sketch.</desc>
    <defs></defs>
    <g id="Page-1" stroke="none" stroke-width="1" fill="none" fill-rule="evenodd">
        <g id="Icons-Pattern-One" transform="translate(-711.000000, -465.000000)" fill="#FFF">
            <g id="Library" transform="translate(709.000000, 465.000000)">
                <path d="M4.43517938,0 L4.43517938,0 C5.78009181,-2.47056406e-16 6.87035876,1.09026694 6.87035876,2.43517938 L6.87035876,33.5648206 L6.87035876,33.5648206 C6.87035876,34.9097331 5.78009181,36 4.43517938,36 L4.43517938,36 L4.43517938,36 C3.09026694,36 2,34.9097331 2,33.5648206 L2,2.43517938 L2,2.43517938 C2,1.09026694 3.09026694,2.47056406e-16 4.43517938,0 L4.43517938,0 Z M23.3331457,0.613335127 C24.6727509,0.262477953 26.0496988,1.03954406 26.4086449,2.34896086 L34.6410846,32.3804729 C35.0000308,33.6898897 34.2050495,35.0358077 32.8654444,35.3866649 C31.5258392,35.737522 30.1488913,34.9604559 29.7899452,33.6510391 L21.5575054,3.61952708 C21.1985593,2.31011028 21.9935405,0.964192301 23.3331457,0.613335127 Z M14.1371647,0 L14.1371647,0 C15.4820772,-2.47056406e-16 16.5723441,1.09026694 16.5723441,2.43517938 L16.5723441,33.5648206 L16.5723441,33.5648206 C16.5723441,34.9097331 15.4820772,36 14.1371647,36 C12.7922523,36 11.7019854,34.9097331 11.7019854,33.5648206 L11.7019854,2.43517938 L11.7019854,2.43517938 C11.7019854,1.09026694 12.7922523,2.47056406e-16 14.1371647,0 L14.1371647,0 Z"></path>
            </g>
        </g>
    </g>
</svg>
