<?xml version="1.0" encoding="UTF-8"?>
<svg width="34px" height="36px" viewBox="0 0 34 36" version="1.1" xmlns="http://www.w3.org/2000/svg" xmlns:xlink="http://www.w3.org/1999/xlink">
    <!-- Generator: Sketch 46.2 (44496) - http://www.bohemiancoding.com/sketch -->
    <title>Delete</title>
    <desc>Created with Sketch.</desc>
    <defs></defs>
    <g id="Page-1" stroke="none" stroke-width="1" fill="none" fill-rule="evenodd">
        <g id="Icons-Pattern-One" transform="translate(-257.000000, -93.000000)" fill="#FFF">
            <g id="Delete" transform="translate(256.000000, 93.000000)">
                <path d="M15.7333333,2.25 L3.26666667,2.25 C2.01482123,2.25 1,3.25735931 1,4.5 C1,5.74264069 2.01482123,6.75 3.26666667,6.75 L32.7333333,6.75 C33.9851788,6.75 35,5.74264069 35,4.5 C35,3.25735931 33.9851788,2.25 32.7333333,2.25 L20.2666667,2.25 C20.2666667,1.00735931 19.2518454,0 18,0 C16.7481546,0 15.7333333,1.00735931 15.7333333,2.25 Z M5.53384366,9 L30.466417,9 C31.0923397,9 31.5997503,9.50367966 31.5997503,10.125 C31.5997503,10.1783073 31.5959334,10.2315472 31.5883283,10.2843172 L28.1606096,34.0686345 C28.0008904,35.1768973 27.0446258,36 25.916787,36 L10.0834737,36 C8.95563483,36 7.99937028,35.1768973 7.83965102,34.0686345 L4.41193232,10.2843172 C4.32329208,9.6692587 4.75373178,9.09932649 5.3733463,9.01133801 C5.42650724,9.00378888 5.48014149,9 5.53384366,9 Z M18.0001303,14.6030654 C17.3935563,14.6030654 16.9018309,15.0911752 16.9018309,15.6932891 L16.9018309,29.2014247 C16.9018309,29.8035386 17.3935563,30.2916484 18.0001303,30.2916484 C18.6067044,30.2916484 19.0984298,29.8035386 19.0984298,29.2014247 L19.0984298,15.6932891 C19.0984298,15.0911752 18.6067044,14.6030654 18.0001303,14.6030654 Z M25.9169963,14.7783679 C25.3178902,14.6841765 24.7552959,15.0899197 24.6604068,15.6846206 L22.531616,29.0264486 C22.4367269,29.6211495 22.8454756,30.179607 23.4445817,30.2737984 C24.0436878,30.3679898 24.6062821,29.9622466 24.7011712,29.3675457 L26.829962,16.0257177 C26.9248511,15.4310168 26.5161024,14.8725592 25.9169963,14.7783679 Z M10.2649881,14.7783679 C9.66588198,14.8725592 9.25713332,15.4310168 9.3520224,16.0257177 L11.4808132,29.3675457 C11.5757023,29.9622466 12.1382966,30.3679898 12.7374027,30.2737984 C13.3365088,30.179607 13.7452575,29.6211495 13.6503684,29.0264486 L11.5215776,15.6846206 C11.4266885,15.0899197 10.8640942,14.6841765 10.2649881,14.7783679 Z"></path>
            </g>
        </g>
    </g>
</svg>
