<?xml version="1.0" encoding="UTF-8"?>
<svg width="36px" height="36px" viewBox="0 0 36 36" version="1.1" xmlns="http://www.w3.org/2000/svg" xmlns:xlink="http://www.w3.org/1999/xlink">
    <!-- Generator: Sketch 46.2 (44496) - http://www.bohemiancoding.com/sketch -->
    <title>Queue</title>
    <desc>Created with Sketch.</desc>
    <defs></defs>
    <g id="Page-1" stroke="none" stroke-width="1" fill="none" fill-rule="evenodd">
        <g id="Icons-Pattern-One" transform="translate(-860.000000, -465.000000)" fill="#FFF">
            <g id="Queue" transform="translate(860.000000, 465.000000)">
                <path d="M18.1946151,7.57330547 L33.8762935,7.57330547 C34.980863,7.57330547 35.8762935,8.46873597 35.8762935,9.57330547 C35.8762935,10.677875 34.980863,11.5733055 33.8762935,11.5733055 L16.2281832,11.5733055 L18.2729987,10.380719 C18.511274,10.241751 18.7095348,10.0434902 18.8485028,9.80521486 C19.2932826,9.04259295 19.0356206,8.06380048 18.2729987,7.61902071 L18.1946151,7.57330547 Z M3.87629351,33.5733055 C3.87629351,32.468736 4.77172401,31.5733055 5.87629351,31.5733055 L33.8762935,31.5733055 C34.980863,31.5733055 35.8762935,32.468736 35.8762935,33.5733055 C35.8762935,34.677875 34.980863,35.5733055 33.8762935,35.5733055 L5.87629351,35.5733055 C4.77172401,35.5733055 3.87629351,34.677875 3.87629351,33.5733055 Z M3.87629351,21.5733055 C3.87629351,20.468736 4.77172401,19.5733055 5.87629351,19.5733055 L33.8762935,19.5733055 C34.980863,19.5733055 35.8762935,20.468736 35.8762935,21.5733055 C35.8762935,22.677875 34.980863,23.5733055 33.8762935,23.5733055 L5.87629351,23.5733055 C4.77172401,23.5733055 3.87629351,22.677875 3.87629351,21.5733055 Z M15.1941076,9.9718314 L1.69199485,17.8465942 C1.15521659,18.1596565 0.466284754,17.9782988 0.153222525,17.4415205 C0.0528748417,17.2694638 0,17.0738525 0,16.8746712 L0,1.12514554 C0,0.503744818 0.503744818,0 1.12514554,0 C1.32432678,0 1.51993815,0.0528748417 1.69199485,0.153222525 L15.1941076,8.02798536 C15.7308858,8.34104759 15.9122435,9.02997943 15.5991813,9.56675769 C15.5013674,9.73446991 15.3618198,9.87401752 15.1941076,9.9718314 Z"></path>
            </g>
        </g>
    </g>
</svg>
