<?xml version="1.0" encoding="UTF-8"?>
<svg width="37px" height="22px" viewBox="0 0 37 22" version="1.1" xmlns="http://www.w3.org/2000/svg">
  <g id="Page-1" stroke="none" stroke-width="1" fill="none" fill-rule="evenodd">
    <g id="Icons-Pattern-One" transform="translate(-709.000000, -286.000000)" fill="#FFF">
      <g id="Previous" transform="translate(709.000000, 279.000000)">
        <path
          d="M31.5350008,15.0036284 L17.8240107,7.18215392 C17.6148869,7.06285864
          17.3771339,7 17.135042,7 C16.3797696,7 15.7675004,7.59886165
          15.7675004,8.33759493 L15.7675004,15.0036284 L2.05651029,7.18215392
          C1.8473865,7.06285864 1.60963353,7 1.36754162,7 C0.612269239,7 0,7.59886165 0,8.33759493
          L0,27.0609378 C0,27.2977283 0.0642659496,27.5302749 0.186232067,27.7348193 C0.566738954,28.3729517
          1.40409104,28.5885533 2.05651029,28.2163788 L15.7675004,20.3949043 L15.7675004,27.0609378
          C15.7675004,27.2977283 15.8317664,27.5302749 15.9537325,27.7348193 C16.3342394,28.3729517
          17.1715914,28.5885533 17.8240107,28.2163788 L31.5350008,20.3949043 L31.5350008,26.1462505
          C31.5350008,27.3902719 32.5434794,28.3987505 33.7875009,28.3987505 C35.0315223,28.3987505
          36.0400009,27.3902719 36.0400009,26.1462505 L36.0400009,9.25250006 C36.0400009,8.00847863
          35.0315223,7 33.7875009,7 C32.5434794,7 31.5350008,8.00847863 31.5350008,9.25250006
          L31.5350008,15.0036284 L31.5350008,15.0036284 Z"
          transform="translate(18.020000, 17.699375) scale(-1, 1) translate(-18.020000, -17.699375) "
        >
        </path>
      </g>
    </g>
  </g>
</svg>
