<?xml version="1.0" encoding="UTF-8"?>
<svg width="36px" height="30px" viewBox="0 0 36 30" version="1.1" xmlns="http://www.w3.org/2000/svg" xmlns:xlink="http://www.w3.org/1999/xlink">
    <!-- Generator: Sketch 46.2 (44496) - http://www.bohemiancoding.com/sketch -->
    <title>Repeat</title>
    <desc>Created with Sketch.</desc>
    <defs></defs>
    <g id="Page-1" stroke="none" stroke-width="1" fill="none" fill-rule="evenodd">
        <g id="Icons-Pattern-One" transform="translate(-256.000000, -282.000000)" fill-rule="nonzero" fill="#FFF">
            <g id="Repeat" transform="translate(256.000000, 279.000000)">
                <path d="M8.64,25.9710983 L19.2030566,25.9710983 C28.1531421,25.9710983 32.16,22.7468816 32.16,16 L36,16 C36,25.2145828 30.0888956,29.9710983 19.2030566,29.9710983 L8.64,29.9710983 L8.64,33 L5.68434189e-14,28 L8.64,23 L8.64,25.9710983 Z M27.36,10.0289017 L16.7969434,10.0289017 C7.84685788,10.0289017 3.84,13.2531184 3.84,20 L0,20 C0,10.7854172 5.91110441,6.02890173 16.7969434,6.02890173 L27.36,6.02890173 L27.36,3 L36,8 L27.36,13 L27.36,10.0289017 Z"></path>
            </g>
        </g>
    </g>
</svg>
